REM DIRINDEX 1\2,1\3
REM DIRNAME folder01,folder02,folder03
TITLE ""
FILE "Track04.mp3" MP3
  TRACK 01 AUDIO
    TITLE "0:"
    INDEX 01 00:00:00
  TRACK 02 AUDIO
    TITLE "3:cjc140_009"
    INDEX 01 00:00:05
  TRACK 03 AUDIO
    TITLE "2:cjc140_010"
    INDEX 01 00:01:52
  TRACK 04 AUDIO
    TITLE "2:cjc140_011"
    INDEX 01 00:07:60
  TRACK 05 AUDIO
    TITLE "2:cjc140_012"
    INDEX 01 00:13:32
  TRACK 06 AUDIO
    TITLE "0:"
    INDEX 01 00:22:19
